<?xml version="1.0"?>
<svg xmlns="http://www.w3.org/2000/svg" xmlns:xlink="http://www.w3.org/1999/xlink" xmlns:svgjs="http://svgjs.com/svgjs" version="1.1" width="512" height="512" x="0" y="0" viewBox="0 0 469.333 469.333" style="enable-background:new 0 0 512 512" xml:space="preserve"><g>
<g xmlns="http://www.w3.org/2000/svg">
	<g>
		<g>
			<circle cx="160" cy="117.333" r="53.333" fill="#0a1014" style=""/>
			<path d="M469.333,238.219V117.333c0-1.426-0.29-2.818-0.828-4.105c-0.542-1.301-1.328-2.47-2.31-3.449L359.555,3.138     c-0.979-0.982-2.148-1.768-3.449-2.31C354.818,0.29,353.426,0,352,0H42.667C19.135,0,0,19.135,0,42.667v96     c0,1.656,0.385,3.292,1.125,4.771l19.438,38.885L0.448,249.385C0.156,250.375,0,251.406,0,252.448v174.219     c0,23.531,19.135,42.667,42.667,42.667h61.865c2.219,0,4.385-0.698,6.198-1.99l39.917-28.51l69.156,29.635     c1.333,0.573,2.76,0.865,4.198,0.865c0.698,0,1.396-0.073,2.094-0.208l101.063-20.208l17.302,17.292c2,2,4.708,3.125,7.542,3.125     h74.667c23.531,0,42.667-19.135,42.667-42.667v-32c0-1.656-0.385-3.292-1.125-4.771l-40.052-80.094l39.656-66.094     C468.813,242.052,469.333,240.156,469.333,238.219z M441.406,384L448,397.188v29.479c0,11.76-9.573,21.333-21.333,21.333h-70.25     l-6.008-6.008l15.633-5.211c5.583-1.854,8.604-7.896,6.74-13.49c-1.865-5.583-7.875-8.604-13.49-6.74L327.948,427     l-102.792,20.563l-57.267-24.544c3.715-4.19,3.664-10.548-0.348-14.56c-4.167-4.167-10.917-4.167-15.083,0l-10.052,10.052     L101.115,448H42.667c-11.76,0-21.333-9.573-21.333-21.333V384H441.406z M448,235.26l-18.12,30.203L295.542,131.125     c-4.167-4.167-10.917-4.167-15.083,0l-92.5,92.5c-4.167,4.167-4.167,10.917,0,15.083l26.667,26.667     c4.156,4.156,4.156,10.927,0,15.083c-4.042,4.021-11.042,4.021-15.083,0l-74.667-74.667c-4.167-4.167-10.917-4.167-15.083,0     L21.333,294.25v-40.24l20.62-68.729l20.922-41.844c2.635-5.271,0.5-11.677-4.771-14.313c-5.271-2.625-11.677-0.5-14.313,4.771     L32,157.479l-10.667-21.333V42.667c0-11.76,9.573-21.333,21.333-21.333h298.667v64C341.333,108.865,360.469,128,384,128h64     V235.26z" fill="#0a1014" style=""/>
		</g>
	</g>
</g>
<g xmlns="http://www.w3.org/2000/svg">
</g>
<g xmlns="http://www.w3.org/2000/svg">
</g>
<g xmlns="http://www.w3.org/2000/svg">
</g>
<g xmlns="http://www.w3.org/2000/svg">
</g>
<g xmlns="http://www.w3.org/2000/svg">
</g>
<g xmlns="http://www.w3.org/2000/svg">
</g>
<g xmlns="http://www.w3.org/2000/svg">
</g>
<g xmlns="http://www.w3.org/2000/svg">
</g>
<g xmlns="http://www.w3.org/2000/svg">
</g>
<g xmlns="http://www.w3.org/2000/svg">
</g>
<g xmlns="http://www.w3.org/2000/svg">
</g>
<g xmlns="http://www.w3.org/2000/svg">
</g>
<g xmlns="http://www.w3.org/2000/svg">
</g>
<g xmlns="http://www.w3.org/2000/svg">
</g>
<g xmlns="http://www.w3.org/2000/svg">
</g>
</g></svg>
