<svg width="35" height="16" xmlns="http://www.w3.org/2000/svg">
  <g fill="#0A1014" fill-rule="nonzero">
    <path d="M0 8.666v7.113h3.699V1.553H0zM4.732 8.666v7.113H7.996l.006-4.577c.005-2.514.016-4.534.027-4.49.011.043.305 2.046.648 4.452.342 2.405.636 4.425.652 4.49.028.125.033.125 1.17.125s1.142 0 1.164-.125c.016-.065.19-1.32.386-2.78.19-1.466.468-3.53.61-4.588l.26-1.928.017 4.714.01 4.707 1.622-.01 1.615-.017V1.58l-2.404-.016-2.41-.01-.027.119c-.011.07-.196 1.493-.408 3.165-.462 3.644-.408 3.28-.446 3.177-.022-.044-.234-1.5-.479-3.231-.245-1.732-.457-3.166-.473-3.193-.011-.021-1.1-.038-2.415-.038H4.733v7.113zM17.244 8.672v7.118l3.09-.027c2.67-.016 3.138-.033 3.492-.114 1.044-.239 1.615-.76 1.844-1.678.109-.456.169-2.08.163-4.952 0-3.106-.06-4.838-.185-5.31-.294-1.113-1.12-1.781-2.464-1.988-.696-.108-2.132-.168-4.047-.168h-1.893v7.119zm4.52-4.534c.343.174.337.152.365 3.66.021 3.312-.028 4.772-.169 5.12-.103.234-.326.364-.723.402l-.294.032V3.981l.326.032c.18.022.403.076.495.125zM26.655 8.666v7.113H29.968l.06-.217c.027-.12.081-.32.114-.44l.06-.228.157.196c.207.25.817.651 1.164.77.854.288 1.877.088 2.54-.51.333-.299.501-.586.626-1.064.093-.348.098-.722.098-4.588V5.49l-.147-.315c-.299-.636-.718-.983-1.403-1.157-.479-.12-1.24-.12-1.676.005-.364.104-.837.38-1.147.668-.098.098-.19.174-.201.174-.011 0-.022-.744-.022-1.656V1.553h-3.536v7.113zm4.264-2.638c.326.135.326.119.348 3.534.011 1.743-.005 3.318-.032 3.611-.05.456-.07.527-.196.635a.445.445 0 0 1-.604 0c-.234-.2-.25-.537-.234-4.142.016-3.579.016-3.546.31-3.654.196-.072.202-.072.408.016z"/>
  </g>
</svg>
