<svg width="16" height="16" xmlns="http://www.w3.org/2000/svg">
  <path d="M5.356.15C8.35-.63 8.695 1.791 7.953 3.773c-.75 2.873 2.075 2.82 2.285 1.2.413-2.195 2.224-3.182 3.632-1.95 1.444 1.446.81 4.36-2.045 4.075-1.838-.185-2.242 2.334.097 2.524 3.695.228 4.872 2.642 3.56 4.275-1.835 1.805-4.323-.53-5.22-2.325-.78-1.11-1.986.013-1.54.775 1.49 2.32.336 3.722-1.25 3.65-1.533-.102-2.403-1.08-1.515-3.475.447-1.487-.986-1.834-1.9-.65-1.343 2.338-3.31 1.631-3.896.5-.372-.908-.335-3.08 2.766-2.824 1.913.493 1.35-1.497-.073-1.625-1.06-.053-3.497-.87-2.621-2.925.842-1.317 2.862-1.402 3.824.75.348.505.959 1.316 2.068.6.403-.62.14-1.657-1.01-2.4-1.56-.946-1.413-3.004.24-3.8z" fill="#FFF" fill-rule="nonzero"/>
</svg>
