<?xml version="1.0" encoding="UTF-8"?>
<svg width="16px" height="16px" viewBox="0 0 16 16" version="1.1" xmlns="http://www.w3.org/2000/svg" xmlns:xlink="http://www.w3.org/1999/xlink">
    <!-- Generator: Sketch 49.3 (51167) - http://www.bohemiancoding.com/sketch -->
    <title>logo-rotten-tomatoes</title>
    <desc>Created with Sketch.</desc>
    <defs></defs>
    <g id="Styleguide-presentation" stroke="none" stroke-width="1" fill="none" fill-rule="evenodd">
        <g id="7.Labels" transform="translate(-382.000000, -834.000000)" fill="#FFFFFF" fill-rule="nonzero">
            <path d="M387.35566,834.149397 C390.351365,833.370974 390.69458,835.791721 389.953222,837.773951 C389.20308,840.647422 392.028221,840.594028 392.238072,838.973753 C392.651443,836.77938 394.46203,835.792198 395.86975,837.02406 C397.314395,838.47033 396.680886,841.383845 393.825483,841.098524 C391.987283,840.914424 391.583406,843.432698 393.921687,843.62315 C397.617353,843.851335 398.794237,846.265051 397.481236,847.897602 C395.647164,849.703204 393.159,847.368566 392.262146,845.572963 C391.482384,844.463715 390.275903,845.586116 390.722897,846.347858 C392.21169,848.66773 391.058073,850.069783 389.472278,849.997321 C387.939221,849.896016 387.068742,848.917535 387.956996,846.523175 C388.403874,845.035549 386.971385,844.689326 386.056987,845.873634 C384.714401,848.210787 382.74685,847.50404 382.160759,846.373006 C381.788921,845.464603 381.8258,843.292516 384.926545,843.548757 C386.8402,844.041812 386.276929,842.051716 384.854416,841.923953 C383.794154,841.871155 381.356675,841.05345 382.232888,838.999353 C383.074699,837.681561 385.094884,837.596704 386.056987,839.749245 C386.405259,840.253693 387.015809,841.065249 388.125335,840.349158 C388.527835,839.729663 388.26418,838.692413 387.115196,837.949434 C385.554843,837.003203 385.702426,834.945173 387.35566,834.149397 Z" id="path3575"></path>
        </g>
    </g>
</svg>