<svg xmlns="http://www.w3.org/2000/svg" xmlns:xlink="http://www.w3.org/1999/xlink" version="1.1" enable-background="new 0 0 1000 1000" xml:space="preserve" width="980" height="407"><rect id="backgroundrect" width="100%" height="100%" x="0" y="0" fill="none" stroke="none"/>
<metadata> Svg Vector Icons : http://www.onlinewebfonts.com/icon </metadata>

<g class="currentLayer" style=""><title>Layer 1</title><g id="svg_1" class=""><g transform="translate(0,268) scale(0.10000000149011612,-0.10000000149011612) " id="svg_2"><path d="M0,672.4005859375002 v-2007.5 h521 h521 v2007.5 v2007.5 H521 H0 V672.4005859375002 z" id="svg_3"/><path d="M1333.2,672.4005859375002 v-2007.5 H1793 h459.7 l1.5,1291.9 c1.5,709.5 4.6,1279.6 7.7,1267.3 c3.1,-12.3 85.8,-577.7 182.4,-1256.6 c96.5,-678.9 179.3,-1248.9 183.9,-1267.3 c7.7,-35.2 9.2,-35.2 329.5,-35.2 c320.3,0 321.8,0 327.9,35.2 c4.6,18.4 53.6,372.4 108.8,784.6 c53.6,413.8 131.8,996.1 171.6,1294.9 l73.6,544 l4.6,-1330.2 l3.1,-1328.6 l456.7,3.1 l455.1,4.6 v1999.8 v1999.8 l-677.3,4.6 l-678.9,3.1 l-7.7,-33.7 c-3.1,-19.9 -55.2,-421.4 -114.9,-893.4 c-130.3,-1028.3 -114.9,-925.6 -125.7,-896.5 c-6.1,12.3 -65.9,423 -134.9,911.8 S2691,2661.5005859375 2686.4,2669.1005859375 c-3.1,6.1 -309.6,10.7 -680.4,10.7 h-672.7 V672.4005859375002 z" id="svg_4"/><path d="M4857.9,670.8005859374998 v-2009 l870.4,7.7 c752.4,4.6 884.2,9.2 983.8,32.2 c294.2,67.4 455.1,214.5 519.5,473.5 c30.7,128.7 47.5,586.9 46,1397.6 c0,876.6 -16.9,1365.4 -52.1,1498.7 c-82.8,314.2 -315.7,502.6 -694.2,560.9 c-196.2,30.6 -600.7,47.5 -1140.1,47.5 h-533.3 V670.8005859374998 zM6131.3,1950.4005859375 c96.6,-49 95,-42.9 102.7,-1032.9 c6.1,-934.8 -7.7,-1347 -47.5,-1445.1 c-29.1,-65.9 -91.9,-102.7 -203.8,-113.4 l-82.8,-9.2 v1322.5 v1322.5 l92,-9.2 C6042.4,1979.5005859375 6105.3,1964.2005859375 6131.3,1950.4005859375 z" id="svg_5"/><path d="M7509,672.4005859375002 v-2007.5 h467.4 h465.9 l16.9,61.3 c7.7,33.7 23,90.4 32.2,124.1 l16.9,64.4 l44.4,-55.2 c58.3,-70.5 229.9,-183.9 327.9,-217.6 c240.6,-81.2 528.7,-24.5 715.7,144.1 c93.5,84.3 141,165.5 176.2,300.4 c26.1,98.1 27.6,203.8 27.6,1294.9 v1187.6 l-41.4,88.9 c-84.3,179.3 -202.3,277.4 -395.4,326.4 c-134.9,33.7 -349.4,33.7 -472,-1.5 c-102.7,-29.1 -236,-107.3 -323.3,-188.5 c-27.6,-27.6 -53.6,-49 -56.7,-49 c-3.1,0 -6.1,210 -6.1,467.4 v467.4 h-498 h-498 V672.4005859375002 zM8710.4,1417.1005859375 c91.9,-38.3 91.9,-33.7 98.1,-997.6 c3.1,-491.9 -1.5,-936.3 -9.2,-1019.1 c-13.8,-128.7 -19.9,-148.6 -55.2,-179.3 c-52.1,-44.4 -119.5,-44.4 -170.1,0 c-65.9,56.7 -70.5,151.7 -65.9,1169.2 c4.6,1009.9 4.6,1000.7 87.3,1031.3 C8650.7,1441.7005859375 8652.2,1441.7005859375 8710.4,1417.1005859375 z" id="svg_6"/></g></g></g></svg>