<svg id="Layer_1" enable-background="new 0 0 512 512" height="512" viewBox="0 0 512 512" width="512" xmlns="http://www.w3.org/2000/svg"><path d="m475.281 376.353c16.448-32.918 25.717-70.049 25.717-109.351 0-135.309-109.69-244.998-244.998-244.998s-244.998 109.69-244.998 244.998c0 38.783 9.026 75.454 25.069 108.048z" fill="#ff4155"/><path d="m475.281 376.353v-150.874h-439.21v149.571c39.93 81.121 123.404 136.95 219.929 136.95 96.007 0 179.102-55.232 219.281-135.647z" fill="#222d5b"/><path d="m155.272 485.448c-18.588-23.216-28.599-52.136-28.599-81.877v-148.612c0-16.281 13.199-29.48 29.48-29.48h-120.082v149.571c26.12 53.065 70.875 95.304 125.726 118.176-2.222-2.552-4.409-5.135-6.525-7.778z" fill="#0e1b41"/><path d="m239.346 227.664h49.983l-30.843-53.88h-49.983z" fill="#2d3c6b"/><path d="m354.609 173.784h-50.165l30.844 53.88h50.165z" fill="#2d3c6b"/><path d="m478.278 173.784h-77.71l30.844 53.88h46.867c4.138 0 7.493-3.355 7.493-7.493v-38.894c-.001-4.139-3.356-7.493-7.494-7.493z" fill="#2d3c6b"/><path d="m162.545 173.784h-54.773l17.294 17.153c1.782 1.768 1.747 4.024 1.12 5.546-.626 1.522-2.191 3.148-4.701 3.148h-64.16c-2.804 0-5.084-2.281-5.084-5.084v-20.763h-19.166c-4.139 0-7.493 3.355-7.493 7.493v38.894c0 4.138 3.354 7.493 7.493 7.493h160.313z" fill="#2d3c6b"/><path d="m134.637 220.171v-38.894c0-4.138 3.355-7.493 7.493-7.493h-34.358l17.294 17.153c1.782 1.768 1.747 4.024 1.12 5.546-.626 1.522-2.191 3.148-4.701 3.148h-64.16c-2.804 0-5.084-2.281-5.084-5.084v-20.763h-19.166c-4.138 0-7.493 3.355-7.493 7.493v38.894c0 4.138 3.354 7.493 7.493 7.493h109.055c-4.139 0-7.493-3.355-7.493-7.493z" fill="#222d5b"/><path d="m169.892 71.595-150.009 38.024c-4.011 1.017-6.439 5.093-5.422 9.104l9.556 37.702c1.017 4.011 5.093 6.439 9.104 5.422l19.119-4.846v-26.091c0-2.498 1.616-4.062 3.129-4.693.581-.243 1.273-.399 2.005-.399 1.169 0 2.439.399 3.532 1.482l22.086 21.906 69.799-17.692z" fill="#2d3c6b"/><path d="m116.353 133.674-10.062-39.695c-.6-2.366-.06-4.754 1.273-6.585l-87.681 22.225c-4.011 1.017-6.439 5.093-5.422 9.104l9.556 37.702c1.017 4.011 5.093 6.439 9.104 5.422l19.119-4.846v-26.091c0-2.498 1.616-4.062 3.129-4.693.581-.243 1.272-.399 2.004-.399 1.169 0 2.439.399 3.532 1.482l22.086 21.906 38.925-9.866c-2.647-.728-4.84-2.814-5.563-5.666z" fill="#222d5b"/><path d="m262.941 48.01-47.365 12.006-17.102 59.919 47.365-12.006z" fill="#2d3c6b"/><path d="m356.186 24.375-47.561 12.056-17.102 59.919 47.561-12.056z" fill="#2d3c6b"/><path d="m470.099 43.355-9.556-37.702c-1.017-4.011-5.093-6.439-9.104-5.422l-49.569 12.565-17.102 59.919 79.909-20.255c4.012-1.017 6.439-5.093 5.422-9.105z" fill="#2d3c6b"/><path d="m125.834 190.162-64.16-63.637c-3.898-3.867-10.526-1.105-10.526 4.386v63.637c0 3.411 2.765 6.177 6.177 6.177h64.16c5.514-.001 8.264-6.68 4.349-10.563z" fill="#3c5082"/><g fill="#dae2fe"><path d="m192.645 227.664h48.023l-31.108-53.88h-48.023z"/><path d="m288.594 227.664h48.023l-31.108-53.88h-48.022z"/><path d="m384.639 227.664h48.023l-31.108-53.88h-48.022z"/><path d="m152.218 131.659 46.623-11.817 17.102-59.919-46.623 11.818z"/><path d="m245.37 108.048 46.622-11.817 17.102-59.919-46.622 11.817z"/><path d="m338.615 84.413 46.622-11.817 17.102-59.919-46.622 11.817z"/></g><path d="m330.769 374.017h93.547c4.353 0 7.867-3.593 7.736-7.977-.126-4.236-3.822-7.503-8.06-7.503h-28.531c-1.47 0-2.662-1.192-2.662-2.662v-71.758c0-1.47 1.192-2.663 2.662-2.663h28.531c4.238 0 7.934-3.266 8.06-7.503.131-4.383-3.383-7.977-7.736-7.977h-336.955c-4.238 0-7.934 3.266-8.06 7.503-.131 4.383 3.383 7.977 7.736 7.977h28.855c1.47 0 2.662 1.192 2.662 2.663v71.758c0 1.47-1.192 2.662-2.662 2.662h-28.531c-4.238 0-7.934 3.266-8.06 7.503-.131 4.383 3.383 7.977 7.736 7.977h222.928c1.47 0 2.663 1.192 2.663 2.663v25.477c0 1.47-1.192 2.663-2.663 2.663h-222.604c-4.238 0-7.934 3.266-8.06 7.503-.131 4.383 3.383 7.977 7.736 7.977h336.954c4.238 0 7.934-3.266 8.06-7.503.131-4.383-3.383-7.977-7.736-7.977h-93.547c-1.47 0-2.663-1.192-2.663-2.663v-25.477c.002-1.471 1.194-2.663 2.664-2.663zm-82.832-18.142c0 1.47-1.192 2.662-2.662 2.662h-108.578c-1.47 0-2.662-1.192-2.662-2.662v-74.42h111.24c1.47 0 2.662 1.192 2.662 2.663zm17.787 2.662c-1.274 0-2.308-1.033-2.308-2.308v-72.112c0-1.47 1.192-2.663 2.663-2.663h108.578c1.47 0 2.663 1.192 2.663 2.663v71.758c0 1.47-1.192 2.662-2.663 2.662z" fill="#3c5082"/><path d="m417.637 451.099h-323.274c6.233 5.477 12.739 10.65 19.508 15.479h284.257c6.77-4.829 13.276-10.002 19.509-15.479z" fill="#3c5082"/><path d="m189.014 311.791h-31.906c-4.274 0-7.74-3.465-7.74-7.74s3.465-7.74 7.74-7.74h31.906c4.274 0 7.74 3.465 7.74 7.74s-3.466 7.74-7.74 7.74z" fill="#dae2fe"/><path d="m318.396 311.791h-31.906c-4.274 0-7.74-3.465-7.74-7.74s3.465-7.74 7.74-7.74h31.906c4.275 0 7.74 3.465 7.74 7.74s-3.466 7.74-7.74 7.74z" fill="#dae2fe"/><path d="m131.13 397.157h-14.428c-4.274 0-7.74-3.465-7.74-7.74s3.465-7.74 7.74-7.74h14.428c4.274 0 7.74 3.465 7.74 7.74s-3.465 7.74-7.74 7.74z" fill="#dae2fe"/><path d="m66.22 178.417 15.486-13.153c-2.837-9.843 7.704-11.229 7.704-11.229l-27.736-27.511c-3.898-3.867-10.526-1.105-10.526 4.386v63.637c1.604-16.935 15.072-16.13 15.072-16.13z" fill="#2d3c6b"/><path d="m76.545 185.803c-5.946 0-10.924-4.84-10.924-10.924 0-6.961 6.421-12.052 13.054-10.717 5.196 1.055 8.793 5.586 8.793 10.717.001 6.058-4.955 10.924-10.923 10.924z" fill="#dae2fe"/></svg>