<svg aria-hidden="true" style="position: absolute; width: 0; height: 0; overflow: hidden;" version="1.1" xmlns="http://www.w3.org/2000/svg" xmlns:xlink="http://www.w3.org/1999/xlink">
<defs>
<symbol id="icon-icon-heart-white" viewBox="0 0 32 32">
<title>icon-heart-white</title>
<path fill="none" stroke="#fff" stroke-width="2.6667" stroke-miterlimit="4" stroke-linecap="butt" stroke-linejoin="miter" style="stroke: var(--color1, #fff)" d="M16 7.651c16.421-12.821 19.084 11.669 0 19.015-19.084-5.906-16.421-31.837 0-19.015z"></path>
</symbol>
<symbol id="icon-icon-magnifier-grey" viewBox="0 0 32 32">
<title>icon-magnifier-grey</title>
<path fill="none" stroke="#7a8c99" stroke-width="4" stroke-miterlimit="4" stroke-linecap="square" stroke-linejoin="miter" style="stroke: var(--color1, #7a8c99)" d="M29.333 29.333l-8-8"></path>
<path fill="none" stroke="#7a8c99" stroke-width="4" stroke-miterlimit="4" stroke-linecap="butt" stroke-linejoin="miter" style="stroke: var(--color1, #7a8c99)" d="M24 13.333c0 5.891-4.776 10.667-10.667 10.667s-10.667-4.776-10.667-10.667c0-5.891 4.776-10.667 10.667-10.667s10.667 4.776 10.667 10.667z"></path>
</symbol>
<symbol id="icon-icon-magnifier-white" viewBox="0 0 32 32">
<title>icon-magnifier-white</title>
<path fill="none" stroke="#fff" stroke-width="4" stroke-miterlimit="4" stroke-linecap="square" stroke-linejoin="miter" style="stroke: var(--color1, #fff)" d="M29.333 29.333l-8-8"></path>
<path fill="none" stroke="#fff" stroke-width="4" stroke-miterlimit="4" stroke-linecap="butt" stroke-linejoin="miter" style="stroke: var(--color1, #fff)" d="M24 13.333c0 5.891-4.776 10.667-10.667 10.667s-10.667-4.776-10.667-10.667c0-5.891 4.776-10.667 10.667-10.667s10.667 4.776 10.667 10.667z"></path>
</symbol>
<symbol id="icon-logo" viewBox="0 0 112 32">
<title>logo</title>
<path fill="#fff" style="fill: var(--color1, #fff)" d="M50.478 18.789l2.176-8.33h2.397l-3.332 12.053h-2.414l-2.754-8.585-2.754 8.585h-2.448l-3.349-12.053h2.482l2.21 8.296 2.669-8.296h2.431l2.686 8.33zM58.908 17.599v4.913h-2.261v-12.308h2.261v4.641c0.544-0.646 1.462-0.918 2.261-0.918 2.125 0 3.111 1.479 3.111 3.315v5.27h-2.261v-4.879c0-0.935-0.459-1.666-1.547-1.666-0.952 0-1.513 0.714-1.564 1.632zM66.25 20.234c0-1.496 1.105-2.329 2.499-2.533l2.057-0.306c0.476-0.068 0.629-0.306 0.629-0.595 0-0.595-0.459-1.088-1.411-1.088-0.986 0-1.53 0.629-1.598 1.36l-2.006-0.425c0.136-1.309 1.343-2.754 3.587-2.754 2.652 0 3.638 1.496 3.638 3.179v4.114c0 0.442 0.051 1.037 0.102 1.326h-2.074c-0.051-0.221-0.085-0.68-0.085-1.003-0.425 0.663-1.224 1.241-2.465 1.241-1.785 0-2.873-1.207-2.873-2.516zM69.599 21.067c0.952 0 1.836-0.459 1.836-1.938v-0.374l-1.887 0.289c-0.578 0.085-1.037 0.408-1.037 1.054 0 0.493 0.357 0.969 1.088 0.969zM78.845 11.649v2.499h1.683v2.006h-1.683v3.502c0 0.731 0.34 0.969 0.986 0.969 0.272 0 0.578-0.034 0.697-0.068v1.87c-0.204 0.085-0.612 0.204-1.275 0.204-1.632 0-2.652-0.969-2.652-2.584v-3.893h-1.513v-2.006h0.425c0.884 0 1.292-0.578 1.292-1.326v-1.173h2.040zM81.784 11.581c0-0.663 0.561-1.241 1.36-1.241 0.901 0 1.479 0.748 1.479 1.649 0 2.278-1.564 3.111-2.635 3.213v-1.037c0.646-0.102 1.36-0.663 1.394-1.445-0.085 0.051-0.204 0.085-0.357 0.085-0.765 0-1.241-0.51-1.241-1.224zM84.944 20.183l1.938-0.425c0.051 0.663 0.544 1.275 1.53 1.275 0.748 0 1.105-0.391 1.105-0.833 0-0.374-0.255-0.68-0.901-0.816l-1.105-0.255c-1.615-0.357-2.346-1.326-2.346-2.499 0-1.496 1.326-2.737 3.128-2.737 2.38 0 3.179 1.513 3.281 2.414l-1.887 0.425c-0.068-0.493-0.425-1.122-1.377-1.122-0.595 0-1.071 0.357-1.071 0.833 0 0.408 0.306 0.663 0.765 0.748l1.19 0.255c1.649 0.34 2.482 1.343 2.482 2.567 0 1.36-1.054 2.754-3.247 2.754-2.516 0-3.383-1.632-3.485-2.584zM100.325 22.512h-2.261v-8.364h2.261v8.364zM97.792 11.411c0-0.782 0.629-1.411 1.394-1.411 0.782 0 1.394 0.629 1.394 1.411 0 0.748-0.612 1.377-1.394 1.377-0.765 0-1.394-0.629-1.394-1.377zM105.185 17.701v4.811h-2.261v-8.364h2.193v1.037c0.51-0.867 1.513-1.258 2.414-1.258 2.074 0 3.026 1.479 3.026 3.315v5.27h-2.261v-4.879c0-0.935-0.459-1.666-1.547-1.666-0.986 0-1.564 0.765-1.564 1.734z"></path>
<path fill="none" stroke="#fff" stroke-width="3" stroke-miterlimit="4" stroke-linecap="butt" stroke-linejoin="miter" style="stroke: var(--color1, #fff)" d="M30.5 16c0 8.008-6.492 14.5-14.5 14.5s-14.5-6.492-14.5-14.5c0-8.008 6.492-14.5 14.5-14.5s14.5 6.492 14.5 14.5z"></path>
<path fill="#ff9f1c" style="fill: var(--color2, #ff9f1c)" d="M14.554 11.033l6.79 4.514c0.46 0.306 0.585 0.926 0.279 1.386-0.073 0.11-0.167 0.204-0.277 0.278l-6.79 4.541c-0.459 0.307-1.080 0.184-1.387-0.275-0.11-0.165-0.169-0.358-0.169-0.556v-9.055c0-0.552 0.448-1 1-1 0.197 0 0.39 0.058 0.554 0.167z"></path>
</symbol>
</defs>
</svg>
