<?xml version="1.0" standalone="no"?>
<!DOCTYPE svg PUBLIC "-//W3C//DTD SVG 20010904//EN"
 "http://www.w3.org/TR/2001/REC-SVG-20010904/DTD/svg10.dtd">
<svg version="1.0" xmlns="http://www.w3.org/2000/svg"
 width="32.000000pt" height="32.000000pt" viewBox="0 0 32.000000 32.000000"
 preserveAspectRatio="xMidYMid meet">

<g transform="translate(0.000000,32.000000) scale(0.100000,-0.100000)"
fill="#000000" stroke="none">
<path d="M0 269 c0 -44 2 -50 15 -39 18 15 52 4 65 -21 11 -20 35 -25 44 -10
4 5 -5 23 -19 39 -28 33 -31 52 -13 70 9 9 0 12 -40 12 l-52 0 0 -51z"/>
<path d="M156 308 c5 -7 8 -33 9 -58 0 -57 24 -66 46 -18 22 52 79 47 79 -7 0
-27 -16 -42 -50 -47 -40 -5 -33 -40 10 -51 19 -5 43 -16 53 -24 16 -15 17 -10
17 100 l0 117 -86 0 c-65 0 -83 -3 -78 -12z"/>
<path d="M0 147 c0 -32 3 -38 12 -29 7 7 25 12 40 12 39 0 35 15 -12 38 l-40
19 0 -40z"/>
<path d="M76 75 c-30 -28 -46 -31 -64 -13 -9 9 -12 4 -12 -25 l0 -37 66 0 c57
0 65 2 54 15 -7 8 -9 26 -5 44 8 39 -7 46 -39 16z"/>
<path d="M175 91 c-3 -5 0 -21 6 -35 9 -20 9 -29 -1 -41 -11 -13 -4 -15 64
-15 75 0 76 0 76 26 0 22 -2 24 -15 14 -22 -18 -61 -4 -87 30 -23 31 -33 36
-43 21z"/>
</g>
</svg>
