<svg xmlns="http://www.w3.org/2000/svg" width="53" height="40"><path d="M-130-404h1440v920H-130z" fill="#0A1014"/><path d="M5.128 0H53v40H5.128c-1.783 0-2.43-.186-3.08-.534s-1.163-.86-1.512-1.512S0 36.655 0 34.872V5.128c0-1.783.186-2.43.534-3.08S1.394.883 2.046.534 3.345 0 5.128 0z" fill="#FF9F1C"/><path d="M8 20.208v7.558h3.9V12.65H8zm5.003 0v7.558h3.45l.006-4.864.03-4.77a509.1 509.1 0 0 1 .684 4.73l.7 4.77c.03.133.035.133 1.236.133s1.208 0 1.23-.133a170.08 170.08 0 0 0 .408-2.954l.92-6.923.017 5.008.012 5.002 1.714-.012 1.708-.018V12.68l-2.542-.018-2.548-.01-.03.126-.43 3.364-.472 3.375c-.023-.046-.247-1.593-.506-3.433l-.5-3.392c-.012-.023-1.162-.04-2.553-.04h-2.524V20.2zm13.227.006v7.563l3.266-.03 3.692-.12c1.104-.254 1.708-.808 1.95-1.783.115-.484.178-2.2.173-5.26l-.196-5.643c-.3-1.183-1.185-1.892-2.605-2.1-.736-.115-2.254-.18-4.278-.18h-2v7.563zm4.778-4.817c.362.185.356.162.385 3.9l-.178 5.44c-.1.248-.345.387-.765.427l-.3.035v-9.96l.345.035c.2.023.426.08.523.132zm5.17 4.8v7.558h3.502l.063-.23.12-.467.063-.242.167.208c.22.266.863.692 1.23.82.903.306 1.984.092 2.686-.542.35-.317.53-.623.66-1.13.098-.37.104-.767.104-4.875v-4.47l-.155-.334a2.06 2.06 0 0 0-1.484-1.23 4.1 4.1 0 0 0-1.77.006c-.385.1-.886.404-1.213.7-.104.104-.2.185-.213.185s-.023-.8-.023-1.76v-1.76H36.18v7.57zm4.508-2.804c.345.144.345.127.368 3.755l-.035 3.837c-.052.484-.075.56-.207.675-.196.167-.448.167-.638 0-.247-.213-.265-.57-.247-4.4.017-3.802.017-3.768.328-3.883.208-.076.213-.076.432.017z" fill="#0A1014" fill-rule="nonzero"/></svg>