<?xml version="1.0" encoding="UTF-8"?>
<svg width="53px" height="40px" viewBox="0 0 53 40" version="1.1" xmlns="http://www.w3.org/2000/svg" xmlns:xlink="http://www.w3.org/1999/xlink">
    <!-- Generator: Sketch 51 (57462) - http://www.bohemiancoding.com/sketch -->
    <title>imdb</title>
    <desc>Created with Sketch.</desc>
    <defs></defs>
    <g id="ðŸ¿-Movie-search" stroke="none" stroke-width="1" fill="none" fill-rule="evenodd">
        <g id="3.Details" transform="translate(-130.000000, -404.000000)">
            <rect fill="#0A1014" x="0" y="0" width="1440" height="920"></rect>
            <g id="section__cotation-[16h]" transform="translate(130.000000, 404.000000)">
                <g id="cotation">
                    <g id="cotation-[8h]">
                        <g id="imdb">
                            <path d="M5.1277704,-2.07168062e-16 L53,0 L53,40 L5.1277704,40 C3.34473292,40 2.69816044,39.8143488 2.04630859,39.4657346 C1.39445674,39.1171204 0.882879593,38.6055433 0.534265408,37.9536914 C0.185651222,37.3018396 8.02470732e-17,36.6552671 -1.38112041e-16,34.8722296 L1.38112041e-16,5.1277704 C-8.02470732e-17,3.34473292 0.185651222,2.69816044 0.534265408,2.04630859 C0.882879593,1.39445674 1.39445674,0.882879593 2.04630859,0.534265408 C2.69816044,0.185651222 3.34473292,1.2037061e-16 5.1277704,-2.07168062e-16 Z" id="Rectangle-9" fill="#FF9F1C"></path>
                            <g id="998d9f9c579873b1d738668122a52170" transform="translate(8.000000, 11.000000)" fill="#0A1014" fill-rule="nonzero">
                                <g id="Group" transform="translate(18.500000, 8.992471) scale(-1, 1) rotate(-180.000000) translate(-18.500000, -8.992471) translate(0.000000, 0.992471)">
                                    <polygon id="Shape" points="0 7.78465882 0 0.227011765 1.95507099 0.227011765 3.91014199 0.227011765 3.91014199 7.78465882 3.91014199 15.3423059 1.95507099 15.3423059 0 15.3423059"></polygon>
                                    <path d="M5.00288032,7.78465882 L5.00288032,0.227011765 L6.72829615,0.227011765 L8.45333671,0.227011765 L8.45896552,5.09063529 C8.46459432,7.76169412 8.47622718,9.90795294 8.48786004,9.86164706 C8.4994929,9.81534118 8.80982759,7.68677647 9.17232252,5.13091765 C9.53444219,2.57505882 9.84515213,0.429176471 9.86241379,0.359905882 C9.89130832,0.227388235 9.89693712,0.227388235 11.0988742,0.227388235 C12.3008114,0.227388235 12.3064402,0.227388235 12.3293306,0.359905882 C12.3465923,0.429176471 12.5304665,1.76188235 12.7376065,3.31369412 C12.9387424,4.87152941 13.2321907,7.06371765 13.3815416,8.18861176 L13.6577282,10.2366118 L13.6749899,5.2288 L13.6866227,0.227011765 L15.4004057,0.238682353 L17.1081846,0.256 L17.1081846,7.78465882 L17.1081846,15.3133176 L14.5665923,15.3306353 L12.0189959,15.3423059 L11.9901014,15.2154353 C11.9784686,15.1405176 11.7829615,13.6289882 11.5589351,11.8520471 C11.0699797,7.9808 11.1277688,8.36743529 11.0872414,8.47698824 C11.0643509,8.52329412 10.8399493,10.0694588 10.5810243,11.9096471 C10.3220994,13.7498353 10.098073,15.2730353 10.0808114,15.3016471 C10.0691785,15.3246118 8.91902637,15.3419294 7.52758621,15.3419294 L5.00325558,15.3419294 L5.00325558,7.78465882 L5.00288032,7.78465882 Z" id="Shape"></path>
                                    <path d="M18.2294422,7.77863529 L18.2294422,0.215341176 L21.4956491,0.244329412 C24.3190568,0.261647059 24.813641,0.278964706 25.1873935,0.365552941 C26.2913895,0.619294118 26.8951724,1.17308235 27.1368357,2.14814118 C27.2520385,2.63265882 27.3150811,4.35764706 27.3094523,7.40969412 C27.3094523,10.7098353 27.2460345,12.5500235 27.1139452,13.0518588 C26.8032353,14.2347294 25.9292698,14.944 24.5089351,15.1634824 C23.7726876,15.2786824 22.254787,15.3423059 20.2306694,15.3423059 L18.2294422,15.3423059 L18.2294422,7.77863529 Z M23.0079209,12.5959529 C23.3704158,12.4114824 23.3644118,12.4344471 23.3933063,8.70738824 C23.4161968,5.18814118 23.3644118,3.63632941 23.2150609,3.26701176 C23.1058621,3.01891765 22.8702028,2.88037647 22.4502941,2.84009412 L22.1395842,2.80545882 L22.1395842,7.78428235 L22.1395842,12.7631059 L22.4848174,12.7284706 C22.6743205,12.7055059 22.910355,12.6479059 23.0079209,12.5959529 Z" id="Shape"></path>
                                    <path d="M28.177789,7.78465882 L28.177789,0.227011765 L29.9317241,0.227011765 L31.6800304,0.227011765 L31.7434483,0.457788235 C31.7723428,0.584658824 31.8297566,0.798117647 31.8642799,0.924988235 L31.9276978,1.16743529 L32.0943103,0.959623529 C32.3130832,0.694211765 32.9570183,0.267294118 33.3247667,0.140423529 C34.2276268,-0.165270588 35.3087323,0.0481882353 36.0104564,0.682917647 C36.3613185,1.00028235 36.5395639,1.30597647 36.6716531,1.81383529 C36.7695943,2.18315294 36.7752231,2.58108235 36.7752231,6.68875294 L36.7752231,11.1597176 L36.6198682,11.4944 C36.3035294,12.1694118 35.8607302,12.5387294 35.1361156,12.7232 C34.6298986,12.8500706 33.8249797,12.8500706 33.3649189,12.7175529 C32.9795335,12.608 32.4793205,12.3136 32.1517241,12.0079059 C32.0481542,11.904 31.9505882,11.8234353 31.9389554,11.8234353 C31.9273225,11.8234353 31.9160649,12.6140235 31.9160649,13.5830588 L31.9160649,15.3426824 L30.0473022,15.3426824 L28.1785396,15.3426824 L28.1785396,7.78465882 L28.177789,7.78465882 Z M32.6860852,10.5882353 C33.0309432,10.4440471 33.0309432,10.4613647 33.0542089,6.83256471 C33.0658418,4.98070588 33.0485801,3.30767059 33.0196856,2.99595294 C32.9679006,2.51143529 32.9450101,2.43651765 32.8125456,2.32094118 C32.6170385,2.15378824 32.3641176,2.15378824 32.1742394,2.32094118 C31.9269473,2.5344 31.9096856,2.89204706 31.9269473,6.72263529 C31.9442089,10.5246118 31.9442089,10.4899765 32.2545436,10.6051765 C32.4620588,10.6808471 32.4676876,10.6808471 32.6860852,10.5882353 Z" id="Shape"></path>
                                </g>
                            </g>
                        </g>
                    </g>
                </g>
            </g>
        </g>
    </g>
</svg>