<svg xmlns="http://www.w3.org/2000/svg" width="40" height="40"><path d="M-264-404h1440v920H-264z" fill="#0A1014"/><path d="M5.128 0H40v40H5.128c-1.783 0-2.43-.186-3.08-.534s-1.163-.86-1.512-1.512S0 36.655 0 34.872V5.128c0-1.783.186-2.43.534-3.08S1.394.883 2.046.534 3.345 0 5.128 0z" fill="#FF4040"/><path d="M17.63 12.173c3.096-.774 3.45 1.633 2.685 3.604-.775 2.857 2.145 2.804 2.36 1.193.427-2.182 2.3-3.164 3.753-1.94 1.493 1.438.838 4.336-2.113 4.052-1.9-.183-2.317 2.32.1 2.51 3.82.227 5.036 2.627 3.68 4.25-1.896 1.795-4.467-.526-5.394-2.312-.806-1.103-2.053.013-1.59.77 1.54 2.307.346 3.7-1.293 3.63-1.584-.1-2.484-1.074-1.566-3.455.462-1.48-1.02-1.823-1.964-.646-1.388 2.324-3.42 1.622-4.027.497-.384-.904-.346-3.063 2.86-2.81 1.978.5 1.396-1.49-.075-1.616-1.096-.053-3.615-.866-2.71-2.91.87-1.31 2.958-1.395 3.952.746.36.5.99 1.31 2.138.596.416-.616.144-1.647-1.044-2.386-1.613-.94-1.46-2.987.25-3.78z" fill="#fff" fill-rule="nonzero"/></svg>