<?xml version="1.0" encoding="UTF-8"?>
<svg width="35px" height="16px" viewBox="0 0 35 16" version="1.1" xmlns="http://www.w3.org/2000/svg" xmlns:xlink="http://www.w3.org/1999/xlink">
    <!-- Generator: Sketch 49.3 (51167) - http://www.bohemiancoding.com/sketch -->
    <title>logo-imdb</title>
    <desc>Created with Sketch.</desc>
    <defs></defs>
    <g id="Styleguide-presentation" stroke="none" stroke-width="1" fill="none" fill-rule="evenodd">
        <g id="7.Labels" transform="translate(-392.000000, -882.000000)" fill="#0A1014" fill-rule="nonzero">
            <g id="998d9f9c579873b1d738668122a52170" transform="translate(392.000000, 882.000000)">
                <g id="Group" transform="translate(17.500000, 8.463502) scale(-1, 1) rotate(-180.000000) translate(-17.500000, -8.463502) translate(0.000000, 0.934090)">
                    <polygon id="Shape" points="0 7.32673772 0 0.213658131 1.84939148 0.213658131 3.69878296 0.213658131 3.69878296 7.32673772 3.69878296 14.4398173 1.84939148 14.4398173 0 14.4398173"></polygon>
                    <path d="M4.73245436,7.32673772 L4.73245436,0.213658131 L6.36460446,0.213658131 L7.99639959,0.213658131 L8.00172414,4.79118616 C8.00704868,7.30512388 8.01805274,9.32513218 8.0290568,9.28155017 C8.04006085,9.23796817 8.33362069,7.23461315 8.6765213,4.82909896 C9.01906694,2.42358478 9.31298174,0.403930796 9.32931034,0.338734948 C9.356643,0.214012457 9.36196755,0.214012457 10.4989351,0.214012457 C11.6359026,0.214012457 11.6412272,0.214012457 11.6628803,0.338734948 C11.6792089,0.403930796 11.853144,1.65824221 12.0490872,3.11877093 C12.2393509,4.58496886 12.5169371,6.64820484 12.658215,7.70692872 L12.9194726,9.63445813 L12.9358012,4.92122353 L12.9468053,0.213658131 L14.5679513,0.224642215 L16.1834178,0.240941176 L16.1834178,7.32673772 L16.1834178,14.4125343 L13.7792089,14.4288332 L11.3693205,14.4398173 L11.3419878,14.3204097 C11.3309838,14.249899 11.1460446,12.827283 10.9341278,11.1548678 C10.4716024,7.51134118 10.5262677,7.87523322 10.487931,7.97834187 C10.4662779,8.02192388 10.2540061,9.47713772 10.0090771,11.2090796 C9.76414807,12.9410215 9.55223124,14.3746215 9.53590264,14.4015502 C9.52489858,14.423164 8.43691684,14.439463 7.12068966,14.439463 L4.73280933,14.439463 L4.73280933,7.32673772 L4.73245436,7.32673772 Z" id="Shape"></path>
                    <path d="M17.2440669,7.32106851 L17.2440669,0.202674048 L20.3337221,0.229957093 C23.0045132,0.246256055 23.4723631,0.262555017 23.8259128,0.344049827 C24.8702333,0.582865052 25.4413793,1.10407751 25.6699797,2.02177993 C25.7789554,2.47779654 25.8385903,4.10131488 25.8332657,6.97382976 C25.8332657,10.079845 25.7732759,11.8117869 25.6483266,12.2841024 C25.3544118,13.3973924 24.5276876,14.0649412 23.1841278,14.2715128 C22.4876775,14.3799363 21.0518256,14.4398173 19.1371197,14.4398173 L17.2440669,14.4398173 L17.2440669,7.32106851 Z M21.7642495,11.8550145 C22.1071501,11.6813952 22.1014706,11.703009 22.1288032,8.19518893 C22.1504564,4.8829564 22.1014706,3.42242768 21.9601927,3.0748346 C21.8568966,2.84133426 21.6339757,2.71094256 21.2367647,2.67302976 L20.9428499,2.64043183 L20.9428499,7.32638339 L20.9428499,12.0123349 L21.2694219,11.979737 C21.4486815,11.9581232 21.6719574,11.9039114 21.7642495,11.8550145 Z" id="Shape"></path>
                    <path d="M26.6546653,7.32673772 L26.6546653,0.213658131 L28.3137931,0.213658131 L29.9675963,0.213658131 L30.0275862,0.430859516 C30.0549189,0.550267128 30.1092292,0.75116955 30.1418864,0.870577163 L30.2018763,1.09876263 L30.3594828,0.903175087 C30.56643,0.653375779 31.1755578,0.251570934 31.523428,0.132163322 C32.3774848,-0.155548789 33.4001521,0.0453536332 34.0639452,0.642746021 C34.3958418,0.941442215 34.5644523,1.22915433 34.6894016,1.7071391 C34.7820487,2.05473218 34.7873732,2.42925398 34.7873732,6.29529689 L34.7873732,10.5032637 L34.6404158,10.8182588 C34.3411765,11.453564 33.9223124,11.8011571 33.2368661,11.9747765 C32.7580122,12.0941841 31.9966024,12.0941841 31.5614097,11.9694616 C31.196856,11.8663529 30.7236815,11.5892706 30.4137931,11.3015585 C30.3158215,11.2037647 30.2235294,11.1279391 30.2125254,11.1279391 C30.2015213,11.1279391 30.1908722,11.8720221 30.1908722,12.7840554 L30.1908722,14.4401716 L28.4231237,14.4401716 L26.6553753,14.4401716 L26.6553753,7.32673772 L26.6546653,7.32673772 Z M30.9192698,9.96539792 C31.2454868,9.82969135 31.2454868,9.84599031 31.2674949,6.43064913 C31.278499,4.68772318 31.2621704,3.11310173 31.2348377,2.81972042 C31.1858519,2.36370381 31.1641988,2.29319308 31.0388945,2.18441522 C30.8539554,2.02709481 30.6147059,2.02709481 30.4350913,2.18441522 C30.2011663,2.38531765 30.1848377,2.72192664 30.2011663,6.32718616 C30.2174949,9.90551696 30.2174949,9.87291903 30.5110548,9.98134256 C30.7073529,10.0525619 30.7126775,10.0525619 30.9192698,9.96539792 Z" id="Shape"></path>
                </g>
            </g>
        </g>
    </g>
</svg>