<svg width="17" height="16" xmlns="http://www.w3.org/2000/svg">
  <path d="M5.63.173C8.724-.6 9.08 1.806 8.313 3.778c-.775 2.857 2.145 2.804 2.361 1.193.428-2.182 2.299-3.164 3.754-1.94 1.493 1.44.838 4.336-2.113 4.053-1.9-.183-2.317 2.32.1 2.51 3.82.227 5.035 2.628 3.678 4.251-1.895 1.796-4.467-.526-5.394-2.312-.806-1.103-2.053.013-1.59.77 1.538 2.308.346 3.702-1.293 3.63-1.585-.1-2.484-1.074-1.566-3.455.462-1.48-1.019-1.823-1.964-.646C2.899 14.156.866 13.454.26 12.33c-.384-.903-.346-3.063 2.859-2.809 1.978.49 1.395-1.488-.075-1.615C1.948 7.852-.57 7.039.334 4.996c.87-1.31 2.959-1.395 3.953.746.36.502.991 1.309 2.138.597.416-.617.143-1.648-1.044-2.387-1.613-.94-1.46-2.987.248-3.779z" fill="#fff"/>
</svg>
