<svg xmlns="http://www.w3.org/2000/svg" width="16" height="16"><path d="M5.356.15C8.35-.63 8.695 1.792 7.953 3.774c-.75 2.873 2.075 2.82 2.285 1.2.413-2.194 2.224-3.182 3.632-1.95 1.445 1.446.81 4.36-2.044 4.074-1.838-.184-2.242 2.334.096 2.525 3.696.228 4.873 2.642 3.56 4.274-1.834 1.806-4.322-.53-5.22-2.325-.78-1.11-1.986.013-1.54.775 1.49 2.32.335 3.722-1.25 3.65-1.533-.1-2.404-1.08-1.515-3.474.447-1.488-.986-1.834-1.9-.65-1.343 2.337-3.3 1.63-3.896.5-.372-.908-.335-3.08 2.766-2.824 1.914.493 1.35-1.497-.072-1.625C1.794 7.87-.643 7.053.233 5c.842-1.318 2.862-1.403 3.824.75.348.504.96 1.316 2.068.6.402-.62.14-1.657-1-2.4-1.56-.946-1.413-3.004.24-3.8z" fill="#fff" fill-rule="nonzero"/></svg>