<svg xmlns="http://www.w3.org/2000/svg" width="112" height="32" fill="none" fill-rule="evenodd"><path d="M50.478 18.79l2.176-8.33h2.397L51.72 22.512h-2.414l-2.754-8.585-2.754 8.585H41.35L38 10.46h2.482l2.2 8.296 2.67-8.296h2.43l2.686 8.33zm8.43-1.2v4.913h-2.26V10.204h2.26v4.64c.544-.646 1.462-.918 2.26-.918 2.125 0 3.11 1.48 3.11 3.315v5.27h-2.26v-4.88c0-.935-.46-1.666-1.547-1.666-.952 0-1.513.714-1.564 1.632zm7.342 2.635c0-1.496 1.105-2.33 2.5-2.533l2.057-.306c.476-.068.63-.306.63-.595 0-.595-.46-1.088-1.41-1.088-.986 0-1.53.63-1.598 1.36l-2.006-.425c.136-1.31 1.343-2.754 3.587-2.754 2.652 0 3.638 1.496 3.638 3.18v4.114c0 .442.05 1.037.102 1.326h-2.074c-.05-.22-.085-.68-.085-1.003-.425.663-1.224 1.24-2.465 1.24-1.785 0-2.873-1.207-2.873-2.516zm3.35.833c.952 0 1.836-.46 1.836-1.938v-.374l-1.887.29c-.578.085-1.037.408-1.037 1.054 0 .493.357.97 1.088.97zm9.246-9.418v2.5h1.683v2.006h-1.683v3.502c0 .73.34.97.986.97.272 0 .578-.034.697-.068v1.87c-.204.085-.612.204-1.275.204-1.632 0-2.652-.97-2.652-2.584v-3.893h-1.513v-2.006h.425c.884 0 1.292-.578 1.292-1.326V11.65h2.04zm2.94-.068c0-.663.56-1.24 1.36-1.24.9 0 1.48.748 1.48 1.65 0 2.278-1.564 3.11-2.635 3.213v-1.037c.646-.102 1.36-.663 1.394-1.445a.69.69 0 0 1-.357.085c-.765 0-1.24-.5-1.24-1.224zm3.16 8.602l1.938-.425c.05.663.544 1.275 1.53 1.275.748 0 1.105-.39 1.105-.833 0-.374-.255-.68-.9-.816l-1.105-.255c-1.615-.357-2.346-1.326-2.346-2.5 0-1.496 1.326-2.737 3.128-2.737 2.38 0 3.18 1.513 3.28 2.414l-1.887.425c-.068-.493-.425-1.122-1.377-1.122-.595 0-1.07.357-1.07.833 0 .408.306.663.765.748l1.2.255c1.65.34 2.482 1.343 2.482 2.567 0 1.36-1.054 2.754-3.247 2.754-2.516 0-3.383-1.632-3.485-2.584zm15.38 2.33h-2.26v-8.364h2.26v8.364zm-2.533-11.1c0-.782.63-1.41 1.394-1.41.782 0 1.394.63 1.394 1.41 0 .748-.612 1.377-1.394 1.377-.765 0-1.394-.63-1.394-1.377zm7.393 6.3v4.81h-2.26v-8.364h2.193v1.037c.5-.867 1.513-1.258 2.414-1.258 2.074 0 3.026 1.48 3.026 3.315v5.27h-2.26v-4.88c0-.935-.46-1.666-1.547-1.666-.986 0-1.564.765-1.564 1.734z" fill="#fff"/><circle stroke="#fff" stroke-width="3" cx="16" cy="16" r="14.5"/><path d="M14.554 11.033l6.8 4.514a1 1 0 0 1 .002 1.664l-6.8 4.54A1 1 0 0 1 13 20.921v-9.055a1 1 0 0 1 1.554-.833z" fill="#ff9f1c"/></svg>