<svg width="37" height="18" xmlns="http://www.w3.org/2000/svg">
  <path d="M0 9.208v7.558h3.91V1.65H0v7.558zM5.003 9.208v7.558h3.45l.006-4.864c.006-2.671.017-4.817.029-4.771.012.046.322 2.175.684 4.73.362 2.556.673 4.702.69 4.772.03.132.035.132 1.237.132 1.202 0 1.207 0 1.23-.132.018-.07.202-1.402.409-2.954.2-1.558.494-3.75.644-4.875l.276-2.048.017 5.008.012 5.001 1.713-.011 1.708-.017V1.679l-2.541-.017-2.548-.012-.029.127c-.011.075-.207 1.586-.431 3.363-.489 3.872-.431 3.485-.472 3.376-.023-.047-.247-1.593-.506-3.433-.259-1.84-.483-3.364-.5-3.392-.012-.023-1.162-.04-2.553-.04H5.003v7.557z M18.23 16.777V1.65h2c2.025 0 3.543.064 4.279.179 1.42.22 2.294.929 2.605 2.112.132.501.196 2.342.196 5.642.005 3.052-.058 4.777-.173 5.261-.242.975-.845 1.53-1.95 1.783-.373.086-.868.104-3.691.121l-3.266.03zm4.917-12.299c-.04-.031-.085-.054-.139-.081-.098-.053-.334-.11-.523-.133l-.345-.035v9.958l.31-.035c.42-.04.656-.178.765-.427.15-.369.201-1.92.178-5.44-.024-3.171-.024-3.627-.246-3.807zM28.178 16.766V1.65H31.916v1.76c0 .968.011 1.76.023 1.76.011 0 .11-.082.213-.185.327-.306.827-.6 1.213-.71.46-.133 1.265-.133 1.77-.006.726.185 1.168.554 1.485 1.23l.155.334v4.47c0 4.108-.006 4.506-.103 4.876-.132.508-.31.813-.662 1.13-.701.635-1.783.849-2.685.543-.368-.127-1.012-.554-1.23-.82l-.167-.207-.064.243c-.034.126-.092.34-.12.467l-.064.23h-3.502zm4.513-10.36l-.005-.002c-.218-.092-.224-.092-.431-.017l-.009.003c-.302.112-.302.112-.319 3.88-.017 3.83 0 4.188.247 4.402.19.167.443.167.638 0 .133-.116.156-.19.208-.675.029-.312.046-1.985.034-3.837-.023-3.612-.023-3.612-.363-3.754z" fill="#0A1014"/>
</svg>
